<?xml version="1.0" encoding="UTF-8" standalone="no"?>
<svg
   width="250"
   height="62.3262133052443"
   version="1.1"
   id="svg59"
   xmlns="http://www.w3.org/2000/svg"
   xmlns:svg="http://www.w3.org/2000/svg">
  <defs
     id="defs63" />
  <g
     aria-label="fast"
     id="text53"
     style="font-size:64.2452px;font-family:Montserrat;stroke:#000000">
    <path
       d="m 20.038946,4.4779758 c 1.927357,0 3.726223,0.5782071 5.011128,1.6703759 L 26.591959,2.7433548 C 24.921583,1.3299599 22.351774,0.62326241 19.84621,0.62326241 c -6.617258,0 -10.2149901,3.98320389 -10.2149901,10.02225459 v 4.17594 H 3.5921688 V 18.67617 H 9.6312199 V 48.614445 H 14.192631 V 18.67617 H 24.471867 V 14.821457 H 14.06414 v -3.983204 c 0,-4.1759395 2.055847,-6.3602772 5.974806,-6.3602772 z"
       style="font-size:64.2452px;font-family:Montserrat;stroke:#000000"
       id="path161" />
    <path
       d="m 41.817986,14.564476 c -5.332354,0 -10.343482,1.670376 -13.748478,4.561411 l 2.055847,3.404997 c 2.762544,-2.441319 6.874239,-3.983204 11.242914,-3.983204 6.296032,0 9.572538,3.148016 9.572538,8.930086 v 2.055847 H 40.211855 c -9.701029,0 -13.041781,4.368675 -13.041781,9.572539 0,5.846315 4.689902,9.829519 12.335083,9.829519 5.589335,0 9.572539,-2.120093 11.628386,-5.589335 v 5.268109 h 4.368675 V 27.670502 c 0,-8.737351 -4.946882,-13.106026 -13.684232,-13.106026 z m -1.606131,30.773462 c -5.396599,0 -8.544615,-2.441318 -8.544615,-6.360277 0,-3.469242 2.120093,-6.039051 8.673105,-6.039051 h 10.600462 v 5.525089 c -1.798866,4.432921 -5.589334,6.874239 -10.728952,6.874239 z"
       style="font-size:64.2452px;font-family:Montserrat;stroke:#000000"
       id="path163" />
    <path
       d="m 76.960007,48.935671 c 8.801595,0 13.941213,-3.790468 13.941213,-9.636784 0,-12.977535 -21.907621,-6.103296 -21.907621,-15.226118 0,-3.212261 2.698299,-5.589334 8.801596,-5.589334 3.469242,0 7.002729,0.835188 9.958009,2.891035 l 1.991602,-3.661978 c -2.82679,-1.927357 -7.580936,-3.148016 -11.949611,-3.148016 -8.60886,0 -13.363007,4.111694 -13.363007,9.636784 0,13.363006 21.907621,6.424522 21.907621,15.226118 0,3.340751 -2.634054,5.525089 -9.058576,5.525089 -4.754147,0 -9.315558,-1.670376 -12.013857,-3.790468 l -2.055847,3.597732 c 2.762544,2.377074 8.159143,4.17594 13.748478,4.17594 z"
       style="font-size:64.2452px;font-family:Montserrat;stroke:#000000"
       id="path165" />
    <path
       d="m 115.50704,43.282091 c -1.2849,1.156414 -3.14801,1.734621 -5.01112,1.734621 -3.79047,0 -5.84632,-2.184337 -5.84632,-6.167541 V 18.67617 h 10.27924 V 14.821457 H 104.6496 V 7.4332561 h -4.56141 v 7.3882009 h -6.039051 v 3.854713 h 6.039051 v 20.429982 c 0,6.231786 3.53349,9.829519 9.89376,9.829519 2.63406,0 5.33236,-0.770943 7.13122,-2.377073 z"
       style="font-size:64.2452px;font-family:Montserrat;stroke:#000000"
       id="path167" />
  </g>
  <line
     x1="131.68108931822"
     y1="0.6232621330525"
     x2="131.68108931822"
     y2="48.6144463780905"
     stroke="black"
     id="line55" />
  <g
     aria-label="reg"
     id="text57"
     style="font-size:65.8315px;font-family:Montserrat;stroke:#000000">
    <path
       d="m 154.67274,20.767709 v -6.780648 h -4.47654 v 34.627384 h 4.67404 v -17.64285 c 0,-8.163109 4.41071,-12.771316 11.65218,-12.771316 0.32916,0 0.72415,0.06583 1.11913,0.06583 v -4.542375 c -6.38565,0 -10.79637,2.435767 -12.96881,7.043974 z"
       style="font-size:65.8315px;font-family:Montserrat;stroke:#000000"
       id="path188" />
    <path
       d="m 205.95541,31.300753 c 0,-10.401381 -7.04397,-17.577018 -16.78704,-17.577018 -9.74306,0 -16.9187,7.3073 -16.9187,17.577018 0,10.269718 7.37313,17.642849 18.1695,17.642849 5.46402,0 10.26972,-1.974945 13.3638,-5.661511 l -2.63326,-3.02825 c -2.63326,3.02825 -6.38566,4.542375 -10.59888,4.542375 -7.57062,0 -13.10047,-4.805701 -13.62712,-12.047169 h 28.96587 c 0,-0.526653 0.0658,-1.053305 0.0658,-1.448294 z M 189.16837,17.739458 c 6.78065,0 11.71801,4.73987 12.3105,11.520518 h -24.55516 c 0.59248,-6.780648 5.52985,-11.520518 12.24466,-11.520518 z"
       style="font-size:65.8315px;font-family:Montserrat;stroke:#000000"
       id="path190" />
    <path
       d="m 243.08427,13.987061 v 6.648984 c -2.89658,-4.542375 -7.89978,-6.91231 -13.69295,-6.91231 -9.87473,0 -17.37953,6.780647 -17.37953,16.721208 0,9.940561 7.5048,16.852871 17.37953,16.852871 5.66151,0 10.59887,-2.304103 13.49546,-6.714816 v 4.410713 c 0,8.558098 -4.01572,12.573822 -12.77132,12.573822 -5.33235,0 -10.33555,-1.777452 -13.62712,-4.73987 l -2.36994,3.554902 c 3.62074,3.423239 9.8089,5.332354 16.12873,5.332354 11.45468,0 17.31369,-5.398186 17.31369,-17.313692 V 13.987061 Z m -13.23213,29.163367 c -7.63646,0 -13.10048,-5.200691 -13.10048,-12.705485 0,-7.504794 5.46402,-12.639653 13.10048,-12.639653 7.63645,0 13.1663,5.134859 13.1663,12.639653 0,7.504794 -5.52985,12.705485 -13.1663,12.705485 z"
       style="font-size:65.8315px;font-family:Montserrat;stroke:#000000"
       id="path192" />
  </g>
</svg>
